<?xml version="1.0" encoding="iso-8859-1"?>
<!-- Uploaded to: SVG Repo, www.svgrepo.com, Generator: SVG Repo Mixer Tools -->
<svg height="800px" width="800px" version="1.1" id="Layer_1" xmlns="http://www.w3.org/2000/svg" xmlns:xlink="http://www.w3.org/1999/xlink" 
	 viewBox="0 0 512.002 512.002" xml:space="preserve">
<path style="fill:#AF9CE6;" d="M385.433,117.6h-79.519V26.32c0-14.536-11.783-26.32-26.319-26.32h-47.189
	c-14.536,0-26.32,11.784-26.32,26.32v91.281h-79.519c-14.536,0-26.32,11.784-26.32,26.32v47.189c0,14.536,11.784,26.32,26.32,26.32
	h79.519v268.252c0,14.536,11.784,26.32,26.32,26.32h47.189c14.536,0,26.32-11.784,26.32-26.32V217.428h79.519
	c14.536,0,26.32-11.784,26.32-26.32v-47.189C411.754,129.384,399.969,117.6,385.433,117.6z"/>
<path style="fill:#FFD77A;" d="M372.528,145.251h-94.265V39.226c0-6.392-5.182-11.574-11.574-11.574h-21.376
	c-6.392,0-11.574,5.182-11.574,11.574v106.026h-94.265c-6.392,0-11.574,5.182-11.574,11.574v21.377
	c0,6.392,5.182,11.574,11.574,11.574h94.265v282.998c0,6.392,5.182,11.574,11.574,11.574h21.376c6.392,0,11.574-5.182,11.574-11.574
	V189.776h94.265c6.392,0,11.574-5.182,11.574-11.574v-21.377C384.102,150.433,378.92,145.251,372.528,145.251z"/>
</svg>