<?xml version="1.0" encoding="iso-8859-1"?>
<!-- Uploaded to: SVG Repo, www.svgrepo.com, Generator: SVG Repo Mixer Tools -->
<svg height="800px" width="800px" version="1.1" id="Layer_1" xmlns="http://www.w3.org/2000/svg" xmlns:xlink="http://www.w3.org/1999/xlink" 
	 viewBox="0 0 511.999 511.999" xml:space="preserve">
<g>
	<path style="fill:#4F3E3E;" d="M124.504,274.571c0,0,1.224,27.163-19.471,45.353c0,0,31.164,18.407,66.907,19.719v-36.969
		L124.504,274.571z"/>
	<path style="fill:#4F3E3E;" d="M387.495,274.571c0,0-1.224,27.163,19.471,45.353c0,0-31.164,18.407-66.907,19.719v-36.969
		L387.495,274.571z"/>
</g>
<path style="fill:#DDE1ED;" d="M321.776,406.916l-65.777,46.096l-65.777-46.096c-43.355,15.23-74.443,56.522-74.443,105.083l0,0
	h280.438l0,0C396.219,463.439,365.132,422.146,321.776,406.916z"/>
<path style="fill:#F2C4A4;" d="M297.345,401.361v-61.719h-82.69v61.719c-8.465,0.948-16.648,2.821-24.432,5.556
	c1.304,35.213,30.246,63.362,65.777,63.362s64.472-28.15,65.777-63.362C313.994,404.182,305.81,402.308,297.345,401.361z"/>
<path style="opacity:0.1;enable-background:new    ;" d="M214.655,395.235c13.123,3.846,26.996,5.912,41.345,5.912
	s28.224-2.067,41.345-5.912v-55.593h-82.69V395.235z"/>
<path style="fill:#695352;" d="M387.495,201.145c0-72.623-58.873-131.495-131.495-131.495l0,0
	c-72.623,0-131.495,58.873-131.495,131.495v41.4h11.368v11.368c0,66.239,53.889,120.128,120.128,120.128
	c66.238,0,120.127-53.889,120.127-120.128v-11.368h11.368v-41.4H387.495z"/>
<g>
	<path style="fill:#F2C4A4;" d="M340.059,270.828c0,0-47.616-14.969-84.059,3.743c-36.442-18.712-84.059-3.743-84.059-3.743v-89.814
		c59.128,0,84.059-66.612,84.059-66.612s24.931,66.612,84.059,66.612V270.828z"/>
	<path style="fill:#F2C4A4;" d="M112.161,215.25c-4.352,5.298-7.127,12.902-7.127,22.328c0,28.255,20.745,44.35,42.562,44.35
		v-53.506C147.595,209.731,124.027,200.81,112.161,215.25z"/>
</g>
<path style="fill:#2D2C33;" d="M256,316.501c-14.999,0-29.295-3.908-39.22-10.722c-3.703-2.541-4.644-7.604-2.101-11.306
	c2.543-3.703,7.604-4.644,11.306-2.101c7.282,4.999,18.222,7.866,30.016,7.866c11.794,0,22.734-2.867,30.016-7.866
	c3.702-2.541,8.764-1.603,11.306,2.101c2.541,3.703,1.601,8.765-2.101,11.306C285.295,312.594,270.999,316.501,256,316.501z"/>
<path style="fill:#4F3E3E;" d="M232.676,214.054c-1.854,0-3.719-0.631-5.246-1.922c-2.99-2.527-7.766-4.037-12.776-4.037
	c-5.009,0-9.785,1.509-12.776,4.037c-3.429,2.899-8.561,2.47-11.459-0.961c-2.899-3.429-2.47-8.56,0.961-11.459
	c5.924-5.008,14.407-7.88,23.275-7.88s17.351,2.872,23.275,7.88c3.429,2.899,3.86,8.03,0.961,11.459
	C237.282,213.074,234.986,214.053,232.676,214.054z"/>
<path style="fill:#F2C4A4;" d="M399.838,215.25c4.352,5.298,7.127,12.902,7.127,22.328c0,28.255-20.745,44.35-42.562,44.35v-53.506
	C364.404,209.731,387.973,200.81,399.838,215.25z"/>
<circle style="fill:#2D2C33;" cx="214.657" cy="229.522" r="11.503"/>
<path style="fill:#4F3E3E;" d="M315.366,214.054c-1.854,0-3.719-0.631-5.246-1.922c-2.99-2.527-7.766-4.037-12.776-4.037
	c-5.009,0-9.785,1.509-12.776,4.037c-3.429,2.899-8.56,2.47-11.459-0.961c-2.899-3.429-2.47-8.56,0.961-11.459
	c5.924-5.008,14.407-7.88,23.275-7.88c8.867,0,17.351,2.872,23.275,7.88c3.429,2.899,3.86,8.03,0.961,11.459
	C319.972,213.074,317.677,214.054,315.366,214.054z"/>
<circle style="fill:#2D2C33;" cx="297.341" cy="229.522" r="11.503"/>
<path style="fill:#FFD77A;" d="M337.966,20.443c-5.522-4.553-12.917-8.465-21.979-11.625C299.685,3.131,278.382,0,256,0
	s-43.686,3.131-59.989,8.817c-9.062,3.161-16.457,7.072-21.979,11.626c-10.469,8.634-12.667,18.093-12.667,24.507
	s2.198,15.874,12.667,24.507c5.522,4.554,12.917,8.466,21.979,11.626C212.313,86.769,233.617,89.9,256,89.9
	s43.687-3.131,59.988-8.817c9.062-3.162,16.457-7.072,21.98-11.626c10.469-8.634,12.667-18.093,12.667-24.508
	S348.436,29.077,337.966,20.443z M306.803,50.281c-0.447,0.166-0.909,0.332-1.387,0.499c-12.803,4.466-30.815,7.027-49.417,7.027
	s-36.615-2.561-49.418-7.027c-0.478-0.167-0.94-0.333-1.386-0.499c-4.933-1.83-4.933-8.831,0-10.661
	c0.446-0.166,0.908-0.332,1.386-0.499c12.803-4.466,30.815-7.027,49.418-7.027c18.602,0,36.615,2.561,49.417,7.027
	c0.478,0.167,0.94,0.333,1.387,0.499C311.736,41.45,311.737,48.451,306.803,50.281z"/>
</svg>