<svg enable-background="new 0 0 1500 1500" viewBox="0 0 1500 1500" xmlns="http://www.w3.org/2000/svg"><g fill="none"><path d="m410.1 243.1c.5.2 1.1.4 1.6.7.2.1.3.1.5.2-.7-.3-1.4-.6-2.1-.9z"/><path d="m740.6 494.3c-2.6.7-5.3 1.4-8.1 2.3-26 29.3-59.7 61.2-90.6 86.2 35.1-28.2 71.4-58.1 98.7-88.5z"/><path d="m237.7 951.7c10.6-10.8 21-22.5 31.8-33.9-11 10.9-21.9 22.2-31.8 33.9z"/><path d="m520.2 712.5c-55.5 35.4-107.7 85.5-169.9 129.5-16.5 11.4-36.1 29.9-56.7 50.6-6.7 4.4-9.2 7.9-11 11.4l-13.2 13.7 12.4-12.2c-1.8 3.8-3.6 8.1-9.7 14 77.9-72.7 166.1-138.9 253.7-205.5 5.3-6.3 7.2-10.1-5.6-1.5z"/><path d="m525.8 714c-4.3 5.2-10.9 12-13.4 15.2l23.3-22.9z"/><path d="m618.5 639.4c-7.6 7.4-14.3 14.7-19.8 21.7 68.2-56.8 154.1-115.8 190.8-191.9-25.3 48.7-79.5 89.8-124.9 129.2l6-5.6-12.2 10.7c-21.7 17.6-43.9 34.9-66.4 52.2-19.8 16-38.2 33-56.2 50.5 28-21.7 55.8-43.9 82.7-66.8z"/><path d="m368.4 1297.3c-17.8 5.8-35.4 10.6-52 14.3 13.1.6 26.7-.6 40.4-2.9 4.1-3.2 8-7 11.6-11.4z"/><path d="m793 461.9c-1 2.2-2 4.5-3.1 6.7 1-2.2 2.1-4.4 3.1-6.7z"/><path d="m752.1 491.6c-1.8.3-4 .8-6.3 1.4-8.9 11-20 22.4-32.6 34.1 12.5-7.9 27.5-20.9 40.9-35.4-.6-.1-1.2-.2-2-.1z"/><path d="m753.1 483.3c1.9.1 3.5-1.1 5.8-6.4-.3-.1-.7-.3-1.2-.4-1.5 2.3-3 4.6-4.6 6.8z"/><path d="m427.5 250.4c-.4.7-.8 1.6-1.1 2.7.3-.5.5-.8.8-1.2.2-.6.4-1.2.6-1.7-.1.1-.2.1-.3.2z"/><path d="m755.5 476.2c-1.5-.2-3.4-.4-5.8-.3-1.5 1.8-3 3.7-4.5 5.6 2.1.2 3.7.8 5.1 1.2 1.8-2.2 3.6-4.4 5.2-6.5z"/><path d="m1362 295.1c-11.1 3.7-651.5 614.5-651.5 614.5-1.8 11.1 29.6-1.8 138.8-92.5s488.6-470.1 505.3-492.3 18.5-33.4 7.4-29.7z"/><path d="m381.3 228.7c0 .1 0 .1 0 0 .1.2.4.3.7.4-.3-.1-.5-.2-.7-.4z"/><path d="m381.3 228.7c.1-.1.1-.2.2-.2s-.1 0-.2.2z"/><path d="m382.1 230.4c-.6-.5-.9-.8-1.2-1.1-1.6 2.3-5.2 7.2-9.7 12.1-10.1 11.4-22.4 23.7-35.1 35.9 18.1-17.4 38-36.6 46-46.9z"/><path d="m398.2 237.6c.7.3 1.4.6 2.1.9-.7-.4-1.5-.7-2.2-1.1-.9-.4-1.7-.7-2.4-1 .9.4 1.7.8 2.5 1.2z"/><path d="m161.4 509.9c-.1.1-.2.2-.3.3.3-.1.7-.3 1-.5-.2.1-.5.1-.7.2z"/><path d="m384.9 603.8c53.6-18.9 96.5-36 146.2-57.4-33.2 14.2-66.4 29-100 43.9 82.4-36.1 174.2-76.5 259.4-104.8.7-.6 1.3-1.3 2-1.9-22.1 5-45.2 11.6-68.4 18.9-61 19.7-122.9 44.2-184.5 70.7-5.8 8.8-40.6 20-54.7 30.6z"/><path d="m428.5 246.9c.1 0 .2-.1.3-.1.1-.2.1-.5.1-.6-.2 0-.7.2-1 .2-.1.1-.3.3-.4.4.4 0 .8 0 1 .1z"/><path d="m408.3 242.3c.1 0 .2.1.3.1-.2-.1-.4-.3-.7-.4-.2-.1-.3-.2-.5-.2.3.2.6.4.9.5z"/><path d="m427.2 247.1c.1-.1.2-.2.3-.3-.3 0-.6 0-1-.1-.4.1-.5.1-1 .2.7.2 1.2.3 1.7.2z"/><path d="m425.5 247c0-.1 0-.1 0 0-.2-.1-.6-.2-.9-.4h-.1c-1.5 0-2.9-.2-4.3-.4 2.1.3 4 .6 5.3.8z"/><path d="m420.2 246.1c-.9-.2-1.9-.4-2.8-.6-.2 0-.4-.1-.6-.1 1.1.3 2.2.5 3.4.7z"/><path d="m414.4 244.8c-.4-.1-.8-.3-1.3-.5-.3-.1-.6-.2-.9-.3.7.2 1.4.6 2.2.8z"/><path d="m763.6 458.6c-.5 1.5-1.1 3.1-1.8 4.9-.2 1.1-.4 2.1-.5 3.1.7-2.5 1.5-5.2 2.3-8z"/><path d="m761.3 466.6c-.2.8-.4 1.6-.7 2.4.1-.1.2-.3.3-.4.1-.7.3-1.4.4-2z"/><path d="m763.2 465.2c-.7 1.1-1.6 2.2-2.3 3.3-.2 1.3-.4 2.4-.6 3.6.4-.7.9-1.5 1.3-2.2.5-1.4 1.1-3 1.6-4.7z"/><path d="m769 447.6c.3-1 .6-2 1-3-.5.4-.9.7-1.5 1.2-1 2.2-2 4.7-3.2 8.2 1.4-2.2 2.6-4.4 3.7-6.4z"/><path d="m765.3 453.9c-.1.2-.2.4-.3.6-.5 1.4-.9 2.7-1.3 4.1.6-1.7 1.1-3.3 1.6-4.7z"/><path d="m760.3 472.1c-.3.5-.6.9-.8 1.4-.5 2-.7 3.2-.6 3.4.3-.7.6-1.6 1-2.4.1-.7.2-1.6.4-2.4z"/><path d="m798.6 447.7c7.5-43.1-57.1-42.1-98.9-31.6-45.8 9.7-90.7 24.6-135 40.9 49.2-13 100.2-29.4 151.8-38 37.9-9.7 87.3-7.7 82.1 28.7z"/><path d="m769.2 447.2c-.1.1-.1.2-.2.3-2.3 7.2-4.2 13-5.8 17.7.7-1 1.5-2.1 2.2-3.1 2.4-5.7 3.8-11 3.8-14.9z"/><path d="m771 441.4v-.1c-.3.1-.7.6-1.1 1.2.1 0 .2 0 .4-.1.2-.3.5-.7.7-1z"/><path d="m770.3 442.4c.1 0 .3 0 .4-.1.1-.3.2-.5.2-.7-.1.2-.4.5-.6.8z"/><path d="m771 441.4c0 .1 0 .1-.1.2.5-.6.8-1.1 1.2-1.5 0 0-.1-.1-.1-.1l-.3.3c-.2.4-.4.7-.7 1.1z"/></g><path d="m263 352.7c25.8-21.6 51.6-43 76.1-64.7 12.1-10.8 24.1-21.8 34.8-32.5 5.2-5.3 10.1-10.6 14-15.4 1.6-2 3.4-4.4 3.9-5.3 0-.2-1.3-.7 2.6 1 1.3.6 2.6 1.2 3.9 1.8-.8-.4-1.6-.8-2.5-1.2.7.3 1.5.6 2.4 1-6.7-3.4-12.7-6.6-15.7-8.1-.3-.2-.8.8-1.1.6 0-.1.1 1 .2 1s-.1-1.1-.2-1c0 0 0-.7-.1-.7.2-.2.2-.5.2-.5-1.2-.5-1.1-.5-.2.1 0 0 0 0-.1 0-1.1-.4-1.2-.3-.4.5-.4.5-.7 1-.9 1.3-3.6 4.9-10.5 12.8-17.9 20.4-15 15.4-32.5 31.7-50.2 48.1-35.8 33-73.7 67.1-110 104.1-26.7 27-64.9 35.9-92.3 93.2 49.4-59.1 101.7-99.3 153.5-143.7zm118.3-124c.2.1.4.3.7.4-.3-.1-.6-.2-.7-.4 0 .1 0 .1 0 0zm-10.1 12.8c4.6-4.9 8.2-9.8 9.7-12.1.3.3.6.6 1.2 1.1-8 10.3-28 29.5-46.1 47 12.7-12.3 25.1-24.6 35.2-36z" fill="#ffaf3a"/><path d="m417.2 289.9c-12.6 1-26.5 1.6-35.4 4 14 .7 30.8.6 40.3 1-.2-1.7-.4-3.3-.5-5-.8-.1-2.4-1-4.4 0z" fill="#ffaf3a"/><path d="m421.6 289.9c.8.1.9-.5 0-3.8.8-10.1 1.7-18.3 2.6-24.2-1.8 7.5-3.3 17.3-2.6 28z" fill="#ffaf3a"/><path d="m427.5 250.4c-1.6 2.4-3.1 6-3.2 10.7 0 .2-.1.5-.1.7 0-.1.1-.3.1-.4 0 .8-.1 1.6 0 2.5.1-1.5.2-2.8.4-4 .8-3.1 1.7-5.8 2.4-8-.2.4-.5.8-.8 1.2.5-1 .9-1.9 1.2-2.7z" fill="#ffaf3a"/><path d="m424.5 246.5c-1.8-.2-4.1-.5-7.1-1 1 .2 1.9.4 2.8.6 1.4.2 2.8.4 4.3.4z" fill="#ffaf3a"/><path d="m428.5 246.9h.3c-.2.7-.5 1.7-1 3-.1.2-.2.4-.3.5.1-.1.1-.2.2-.3-.2.5-.4 1.1-.6 1.7 1.5-2.4 2.3-3.9 2.7-4.6.9-1.1 1-1.5-.9-1.1 0 .2-.1.4-.1.6-.1.1-.2.1-.3.2z" fill="#ffaf3a"/><path d="m426.6 246.7c-.6 0-1.2-.1-2-.2.3.2.7.3 1 .4.4-.1.6-.1 1-.2z" fill="#ffaf3a"/><path d="m412.2 244c-.2-.1-.3-.1-.5-.2 7 2.9 13 4.8 15.5 3.4 0 0 .1-.1.1-.1-.5.1-1.1 0-1.7-.2 0 0 0 0-.1 0-1.2-.2-3.2-.5-5.3-.9-1.2-.2-2.3-.4-3.4-.7.2 0 .4.1.6.1-.4-.1-.7-.1-1.1-.2-.3-.1-.6-.1-.9-.2-.8-.2-1.5-.5-2.3-.8.5.2.9.4 1.3.5-.8-.1-1.5-.5-2.2-.7z" fill="#ffaf3a"/><path d="m428 246.4c-.4.1-.9.2-1.4.3.4 0 .7.1 1 .1.1-.2.2-.3.4-.4z" fill="#ffaf3a"/><path d="m428 246.4c.3-.1.7-.2 1-.2 0-.6-.3-.5-1 .2z" fill="#ffaf3a"/><path d="m424.6 246.5h-.1z" fill="#ffaf3a"/><path d="m427.2 247.1c.5-.1.9-.1 1.2-.2-.2 0-.5-.1-.9-.1 0 .1-.1.2-.3.3z" fill="#ffaf3a"/><path d="m408.3 242.3.6.3c.9.4 1.8.8 2.7 1.1-.5-.2-1-.4-1.6-.7.7.3 1.4.6 2.1.8.3.1.6.2.9.3-1.4-.6-3.1-1.3-5.2-2.2.2.1.4.3.7.4 0 .1-.1.1-.2-0z" fill="#ffaf3a"/><path d="m398.2 237.6c1.5.7 2.9 1.4 4.3 2l5.7 2.7c-.3-.1-.6-.3-.9-.5.2.1.3.2.5.2-1.1-.6-2.2-1.1-3-1.8-.3-.1-.6-.2-.9-.3 0 0-.1 0-.1-.1-2.4-1-4.2-1.8-5.8-2.4.7.4 1.5.7 2.2 1.1-.5-.3-1.3-.6-2-.9z" fill="#ffaf3a"/><path d="m240.1 252.4c-3.9-4.7-6.9-9.4-9.4-14.1 2.4 4.8 5.5 9.5 9.4 14.1z" fill="#ffaf3a"/><path d="m332.3 578.5c-30.1 11.3-60.1 22.2-90.9 31.8-33.1 7-56.8 24.3-107.8 11.4-18.6-5.5-26.3-34.2-23.5-43.3-6.4 8.4 4.4 44.8 24.9 48.7 17.7 6.7 28 4.4 39.2 4 21-2.5 39.1-7.9 56.9-13.7 35.5-11.8 68.6-26.3 101.2-38.9z" fill="#ffaf3a"/><path d="m819.3 330c26.7 9.4 44.5 27.8 53.1 37.7 28.5 38.3 25.4 87.4 16.7 110.5-8.4 25.6-19.1 39.8-29.2 53.9-2.3 5.3-5 17.5-12.2 26.6-14.8 18.5-28.7 33.3-42.3 47.7 26.1-26.6 52.3-51.1 76.5-99.3 10.3-22.9 26.8-65.5 4.1-118-19.9-46.6-71.8-70.7-103.2-74.1 12 3.4 25 8.2 36.5 15z" fill="#ffaf3a"/><path d="m371.2 1337.5c1.2-.1 2.6-.2 4.3-.4-1.5.1-2.9.2-4.3.4z" fill="#ffaf3a"/><path d="m714.7 669.1c15-10.4 30.5-20.6 45.8-31.8 25.6-22.5 51.3-45.4 77.3-75.5 5.2-7.7 10.1-16.2 14.5-25.7 4.9-3 10.5-9.1 16.3-16.5 9-16.9 19.6-34 23.3-66.3 2.3-20.5-1.3-56-23.6-84.2-16.7-24.8-57.2-46-83.7-48.7-51-6.1-85.6 3.7-120.7 12.4-4.9 2.8-8.7 5.1-11.1 5.4-19.2 5.2-37 10.7-54 15.8-57.3 21.5-106.6 44.3-133.7 57.8-31.7 18.1 80.5-3.6 75.9 5.7-29.3 36.7-98.4 54.7-184 104.2-23.9 12.8 19.4-3.9 22-.4-2.9 3.5-6.9 7.3-11.8 11.3l-51.9 24.2 7.6-3c15.3-6.6 30.1-13.4 43.3-20.4-14.6 11.7-35.5 24.7-51.4 36.5 135.8-48.1 265.5-117 401.8-150.8-51.6 8.6-102.6 25-151.8 38 44.3-16.2 89.2-31.2 135-40.9 41.7-10.4 106.3-11.4 98.9 31.6 5.2-36.4-44.2-38.4-82-28.8 36-7 77.6-4.4 77.5 21.5.2 25.8-28.7 58.6-54 82.8 31.9-36.7 59.1-94 32.9-91.8 14 4.1 11.7 16.9-8.5 48.2-2.3 2.8-4.7 5.6-7.1 8.4.6-2.5 1.3-6.6 2.5-13.5-.3.8-.7 1.7-1 2.4-.1-.2.1-1.4.6-3.4.3-.5.6-.9.8-1.4.2-1.1.4-2.3.6-3.6-.1.1-.2.3-.3.4.2-.8.4-1.6.7-2.4.2-1 .3-2 .5-3.1.7-1.8 1.3-3.4 1.8-4.9.4-1.4.9-2.8 1.3-4.1.1-.2.2-.4.3-.6 1.2-3.4 2.1-5.9 3.2-8.2.6-.5 1.1-.9 1.5-1.2-.3 1-.6 2-1 3 .1-.1.1-.2.2-.3 0 3.8-1.4 9.2-3.8 14.8 6.6-14.5 8.6-18.4 8.4-20.1.7-.4.7-.4-.1-.2-.2-.7-.8-1-1.6-1.7-.4.5-.7.9-1.2 1.5-.1.3-.2.5-.2.7-.1 0-.3 0-.4.1v.1c-.1 0-.2 0-.4.1.4-.6.8-1.1 1.1-1.2v.1c.3-.4.5-.7.8-1.1l.3-.3c-.1-.1-.2-.2-.3-.3-2.7-3.1-19.1-3.8-36.6-2.1-5.6-1.5-9.9-2.8-8.4-2.6.2.3-.7 2.3-1 3.7-3.5.5-7 1.1-10.4 1.9-49.4 9.7-100.4 28.4-150.1 47.8 44.9-7.4 108.2-39 158.5-45.9-.9 1.8-2 3.8-3.3 5.9-88.7 18.7-194.7 67.8-292.5 108-57.3 24.3-114 49.7-173.9 72.7-33.4 9.8-53.9 25.6-111.1 24.2-8.1-1.1-20.5-4.2-31.6-11.6-14.5-10.4-23.7-24.6-26.6-39.3-5-27.3.1-36.8 3.2-50.7 7.7-23.1 17.3-38.2 26.6-53.4-13.4 21.4-33 37.6-37.2 89.8-.3 16.7 8.3 44.5 30.8 59.3 17.2 11.2 34.3 13.8 43 14 21.5 1.3 33.6-1.6 47-3.8 49.1-10.5 88.6-25.2 130-38.7-15.4 5.2-32.6 13.1-50.1 20.4 56.9-21.4 107-42.6 161.9-66.8l-.5.7c61.6-26.5 123.5-51 184.5-70.7 23.2-7.4 46.3-14 68.4-18.9-.6.6-1.3 1.3-2 1.9-85.2 28.4-177 68.7-259.4 104.8 33.6-14.9 66.8-29.7 100-43.9-49.7 21.4-92.6 38.5-146.2 57.4 14.1-10.6 48.8-21.8 54.6-30.6-71.1 29.7-136.8 63.4-217.2 94-46.4 18.6-92.4 16.8-75.2 23.7 20.5 7.9 56.1 6.3 77.1-.2 166.8-55.7 296.1-117 420.9-163.6-14.3 12.7-27.3 24.2-35.1 31.8-92.5 102.1-214.7 202.5-332.7 320.8-54.3 52-109.5 109.5-150.2 183.5-19.2 37.3-35 81.4-30.8 129.6 3.8 48.7 31.9 90.9 64.1 119.8 67.7 62.9 168.7 64.3 240.6 42.6 75.5-21.4 137.2-51.8 198.5-87.4-52.3 27.7-138.5 74.9-196.1 78.3l15.8-10.8c-12.7-1-51.7 8-72.7 6.4 7.2-3.5 16-3.4 24.8-4.2-6.1.6-7.7.4-16.3.4 15.3-2.1 32.8-6.8 50.8-12.8-39.6.4-64.8-6.3-64.8-6.3 5.7-2.4 11-5.8 16-9.9-13.7 2.3-27.3 3.5-40.4 2.9 16.6-3.7 34.1-8.5 52-14.3 5.6-6.7 10.7-14.6 15.5-23.6-26.2 9.6-51.2 17.5-74.5 9.1l-7.3-.1c-4.8.7-9.2 1.9-14.1 1.7-20.9-4.3-23.2-9.7-44.2-15.9.3-1.1 1.4-1.5 2.8-1.6-6.8-1.1-14.8-7.8-22-11.1 1-2 1.9-3.9 1.8-6.1-39.7-36.1-40.8-66.8-21.1-114.2 6.8-14.1 15.1-28.2 24.9-42.3 8.2-12.3 16.7-25.1 27.8-37.5 5.2-6.4 6.6-14.8 8.3-18.6 16.6-14.5 33.5-28.6 53.6-45.8 2-3.7 8.1-9.9 12.7-17.1l14.6-7.4c24.7-22.6 50.3-44.5 76.3-66.2l-.4-.3c34.6-31.7 87.2-67 124.1-98.1l35.8-24.1c-2.8 0-4.5-1.4-6.2-2.8-3 3.7-7.2 7.2-11.4 10.5 6.5-6.4 12.1-12.5 16.2-18.2 12.8-4.7 26.3-11.6 40.3-19.9 31.8-24.1 63.8-48.6 95.9-74.6 1.6-3.7-1.9-3.3-3.2-4.2zm78.3-207.2c-1 2.3-2.1 4.5-3.1 6.7 1.1-2.2 2.1-4.5 3.1-6.7zm-79.8 65.1c12.7-11.7 23.7-23.1 32.6-34.1 2.3-.5 4.5-1 6.3-1.4.8-.1 1.4 0 1.9 0-13.3 14.6-28.3 27.6-40.8 35.5zm32.1-45.6c1.5-1.9 3-3.8 4.5-5.6 2.4 0 4.3.1 5.8.3-1.6 2.2-3.5 4.3-5.2 6.5-1.4-.4-3-.9-5.1-1.2zm13.6-4.4c-2.3 5.3-3.9 6.5-5.8 6.4 1.6-2.3 3.2-4.5 4.6-6.8.5.1.9.2 1.2.4zm-26.5 19.5c2.9-.9 5.6-1.6 8.1-2.3-27.2 30.5-63.5 60.4-98.8 88.4 31-24.9 64.8-56.8 90.7-86.1zm-196.6 209.8-23.3 22.9c2.5-3.2 9-10 13.4-15.2-87.7 66.6-175.9 132.8-253.7 205.6 6.2-5.9 7.9-10.2 9.7-14l-12.4 12.2c-10.7 11.4-21.2 23.1-31.8 33.9 9.8-11.7 20.7-23 31.8-33.9l13.2-13.7c1.8-3.5 4.3-7 11-11.4 20.5-20.7 40.2-39.2 56.7-50.6 62.2-44 114.4-94.1 169.9-129.5 12.8-8.6 10.8-4.8 5.6 1.5l9.9-7.8c18-17.5 36.4-34.6 56.2-50.5 22.4-17.3 44.7-34.6 66.4-52.2l12.2-10.7-6 5.6c45.5-39.4 99.7-80.5 124.9-129.2-36.6 76-122.5 135-190.8 191.9 5.5-7 12.2-14.3 19.8-21.7-26.9 22.8-54.7 45-82.7 66.8z" fill="#ffaf3a"/><path d="m759.9 474.5c.5-1.3 1.1-2.9 1.8-4.6-.4.7-.9 1.5-1.3 2.2-.3.8-.4 1.7-.5 2.4z" fill="#ffaf3a"/><path d="m763.2 465.2c1.6-4.6 3.5-10.5 5.8-17.7-1.1 2.1-2.4 4.2-3.7 6.4-.5 1.4-1 2.9-1.7 4.7-.9 2.7-1.7 5.5-2.4 8-.1.6-.2 1.3-.3 1.9.8-1.1 1.6-2.2 2.3-3.3z" fill="#ffaf3a"/><path d="m763.2 465.2c-.6 1.7-1.1 3.2-1.6 4.6 1.4-2.6 2.7-5.2 3.8-7.8-.6 1.1-1.5 2.2-2.2 3.2z" fill="#ffaf3a"/><path d="m770.3 442.4c.2-.3.5-.6.6-.8 0-.1 0-.1.1-.2-.2.3-.5.7-.7 1z" fill="#ffaf3a"/><path d="m772.6 439.6c.1-.2.4-.5 1.1-1.3 2.1-2.6 1-1.3 0 0l-1.5 1.7s.1.1.1.1c-0-.2.2-.4.3-.5z" fill="#ffaf3a"/><path d="m395.8 425.1c15.6-4.5 30.2-7.8 44-9.2 34.9-28.9 130.3-60.6 203.5-83.7l-.2-.4c-91.2 26.8-168.6 61-247.3 93.3z" fill="#ffaf3a"/><path d="m182.1 514.4c.8.2 1.3.4 2.2.6-.8-.2-1.4-.4-2.2-.6 44.6-52.1 103-94.8 153.5-141.3-41.4 30-82.9 63.4-122.2 100.7-11.7 12.8-23.9 25.8-35.2 39.3-7.1-2.1-11.9-3.2-15.1-3.8l.6-.3c-.3.1-.4.2-.6.3-.3-.1-.7-.1-1-.2 41-47.2 87.2-85.6 132.2-120.9-45.8 34.3-93.1 73.3-132.5 120.8-7-1.1-4 1.1-.7.8-.1.2-.3.3-.4.5-1.7.9-2.3 1.6-2.2 2.6-.8 1-1.7 2-2.5 3 .8-1 1.7-1.9 2.5-2.9 0 .2 0 .4.1.7 3.9-1.4 3.1-5.1 19.5-.6-15.7 18.8-29.5 38.7-37.3 60.8 11.3-21.4 25.5-41 41.3-59.5zm-20.7-4.5c.3 0 .5-.1.7-.2-.3.2-.7.3-1 .5.1-.1.2-.2.3-.3z" fill="#ffaf3a"/><path d="m288.9 474.2c-.9-1.3-4.2-2.1-1.8-4.7l-47.4 17.8c16.3-4.1 32.9-8.3 49.2-13.1z" fill="#ffaf3a"/><path d="m307 512.7c-1.8 1.1-3.5 4.5-5.6 8.7l42.6-41.6c-12.3 10.3-24.8 21.4-37 32.9z" fill="#ffaf3a"/><path d="m356.9 1308.8c-5 4.1-10.2 7.5-16 9.9 0 0 25.2 6.7 64.8 6.3 47.9-.5 116.9-11.5 188.2-57.6 130.1-84.3 133.8-214.4 133.8-214.4s-23.8 11-58.6-12.8c-3.3-2.3-6.2-4.6-9.2-6.9-75.6 5.6-128.3 72.9-128.3 72.9 36-59.5 86.5-83.4 109.2-91.6-3.3-4.1-6.3-8.3-8.6-12.7-143.9 65.1-162.9 175.8-162.9 175.8 12.1-133.1 119-182.5 156-195.8-1.5-8.3-1.7-16.9-.2-26 0 0-135.6-7.3-174.1 117.3-25.8 83.7-42.6 155.6-66.9 200.7-4.8 9-10 16.9-15.5 23.6-3.8 4.2-7.7 8-11.7 11.3z" fill="#e54725"/><path d="m1426.8 235.8s-24.7-14.8-51.8 4.9-656.4 621.8-698.3 656.4c-42 34.5-22 88.2-4.9 106.1 24.7 25.9 83.9 49.4 130.8-4.9s604.6-649 634.2-686c29.5-37 4.8-64.1-10-76.5zm-72.2 88.9c-16.6 22.2-396 401.6-505.2 492.3s-140.6 103.6-138.8 92.5c0 0 640.4-610.7 651.5-614.5 11-3.6 9.2 7.5-7.5 29.7z" fill="#054e5c"/></svg>