<?xml version="1.0" encoding="UTF-8"?>
 <!DOCTYPE svg PUBLIC "-//W3C//DTD SVG 1.1//EN"
   "http://www.w3.org/Graphics/SVG/1.1/DTD/svg11.dtd">
 <svg xmlns="http://www.w3.org/2000/svg" version="1.1"
   xmlns:xlink="http://www.w3.org/1999/xlink" width="380" height="380">
  <rect width="380" height="380" x="0" y="0" style="fill:#ffb466" />
  <path d="M 221.93889,59.837493 C 219.85797,59.952608 218.06752,60.771434 216.59514,62.243743 215,63.841037 214.18886,65.774425 214.18889,68.087493 214.18886,70.345687 214.99792,72.310322 216.59514,73.962493 218.24737,75.559776 220.21202,76.368837 222.47014,76.368743 224.7282,76.368834 226.65417,75.559775 228.25139,73.962493 229.90361,72.310323 230.72009,70.345689 230.72014,68.087493 230.72009,65.774423 229.91103,63.841039 228.31389,62.243743 226.71665,60.64666 224.78328,59.837599 222.47014,59.837493 222.28942,59.837501 222.11524,59.827737 221.93889,59.837493 z M 328.31389,87.868743 C 327.18585,90.801482 324.71131,92.275062 320.87639,92.274992 L 320.37639,92.274992 271.31389,91.087492 C 262.85426,91.087562 256.63666,92.119752 252.68889,94.149992 247.61311,96.744342 243.22361,102.53273 239.50139,111.55625 L 243.56389,111.55625 C 246.15815,106.14216 250.38605,103.4313 256.25139,103.43124 L 264.72014,103.43124 C 256.4861,138.96159 247.4395,156.74376 237.62639,156.74374 234.46813,156.63096 232.90764,154.47966 232.90764,150.30624 232.90764,149.29111 233.06926,148.17201 233.40764,146.93124 L 229.34514,146.93124 C 227.76601,153.81173 226.97014,158.27595 226.97014,160.30624 226.97014,166.17157 230.07893,169.08749 236.28264,169.08749 245.53179,169.08749 253.66435,158.59856 260.65764,137.61874 262.57512,131.97904 265.56576,120.57609 269.62639,103.43124 L 292.28264,103.43124 C 291.9442,104.67204 291.45934,106.50013 290.78264,108.86875 283.45094,135.71391 279.7826,151.668 279.78264,156.74374 280.12098,164.30099 284.43577,168.41072 292.78264,169.08749 293.79773,169.08749 294.82993,169.04403 295.84514,168.93124 305.771,167.5777 312.8279,158.84214 317.00139,142.71249 L 312.93889,142.71249 C 312.60042,143.95326 312.24595,145.23398 311.90764,146.58749 308.41092,157.52858 304.02141,162.99375 298.72014,162.99374 295.33623,162.99375 293.65759,161.19693 293.65764,157.58749 293.65758,155.21881 294.42221,150.59299 296.00139,143.71249 L 306.50139,103.43124 C 314.73532,103.4313 319.99542,102.98991 322.25139,102.08749 326.31191,100.39564 329.38945,95.651642 331.53264,87.868743 L 328.31389,87.868743 z M 223.53264,92.618742 195.03264,97.274992 195.03264,100.49374 C 198.83283,99.887972 201.35221,99.587552 202.56389,99.587492 204.05091,99.587552 205.20648,99.972752 206.03264,100.74374 206.91382,101.51486 207.34512,102.50089 207.34514,103.71249 207.34512,105.25466 206.45129,109.0605 204.68889,115.11875 L 193.97,152.11874 C 192.6,156.85524 191.9,160.23721 191.9,162.27 191.9,164.31279 192.6,166.02 194.03,167.4 195.46459,168.7218 197.30579,169.36873 199.56389,169.36874 202.97855,169.36873 206.56874,167.91274 210.31389,164.99374 215.3808,161.08339 219.78747,156.28411 223.53264,150.55624 L 220.65764,148.64999 C 217.46322,153.22127 214.29691,156.73409 211.15764,159.21249 210.00103,160.09371 208.98375,160.55625 208.15764,160.55624 207.44164,160.55625 206.83337,160.26326 206.28264,159.71249 205.78694,159.16174 205.53261,158.43747 205.53264,157.55624 205.53261,156.7852 206.08735,154.46662 207.18889,150.55624 L 223.53264,92.618742 z M 137.31389,171.43124 C 121.23442,171.5802 105.59356,176.43818 90.376386,185.96248 74.917546,195.52704 62.076816,208.98816 51.845136,226.33748 41.613406,243.687 36.470126,260.6416 36.470136,277.21248 36.470126,289.5573 40.584016,300.82455 48.813886,311.05623 57.043716,321.28795 69.295296,326.43122 85.532636,326.43123 109.44364,326.43123 134.58099,313.34787 160.93889,287.21248 L 157.43889,282.36873 C 142.8697,293.6014 131.85889,300.90731 124.40764,304.24373 117.0674,307.46896 109.38374,309.05623 101.37639,309.05623 91.367026,309.05624 82.851586,305.6078 75.845136,298.71248 68.838586,291.70601 65.345096,283.26683 65.345136,273.36873 65.345096,269.69871 65.722846,265.08574 66.501386,259.52498 89.077826,256.96712 106.6078,253.39732 119.06389,248.83748 137.859,242.05348 152.07562,233.16029 161.75139,222.14998 169.09139,213.6978 172.78249,204.84964 172.78264,195.61873 172.78249,189.05722 169.95443,183.40108 164.28264,178.61873 158.61058,173.83667 149.85248,171.43139 138.06389,171.43124 137.80844,171.43124 137.56912,171.42888 137.31389,171.43124 z M 131.25139,179.77498 C 131.4735,179.77035 131.68608,179.77498 131.90764,179.77498 137.35703,179.77512 141.51595,181.22729 144.40764,184.11873 147.4103,187.01043 148.9075,190.79161 148.90764,195.46248 148.90751,203.13639 145.45906,211.24283 138.56389,219.80623 131.77971,228.25861 121.55566,235.56453 107.87639,241.68123 97.533386,246.24109 84.148546,249.4 67.688886,251.33748 73.694416,227.76013 83.041646,209.97374 95.720136,197.96248 108.26,186.07701 120.1,180 131.25139,179.77498 z" />
 </svg>