<svg enable-background="new 0 0 1500 1500" viewBox="0 0 1500 1500" xmlns="http://www.w3.org/2000/svg"><g fill="#7c5f47"><path d="m716.4 403.1c-.1.1-.1.2-.2.3 0-.1.1-.2.2-.3z"/><path d="m778 575.4c-4 .1-8.6.8-12.4 1.1 3.7 1.3 8 1.4 12.4-1.1z"/><path d="m1184.5 738.7c-4 .1-8.6.8-12.4 1.1 3.8 1.2 8 1.4 12.4-1.1z"/><path d="m348.4 839.9 9.4 8.1c-1.7-3.5-4.6-6.7-9.4-8.1z"/><path d="m1118.3 725.9 2.9 2.4-1.7-2.3c-.2-.1-.3-.2-.4-.4.1.5 0 .8-.8.3z"/><path d="m712.2 563.1 2.4 1.9-1.7-2.4c-.1-.1-.3-.2-.4-.3.2.5.1.9-.8.3z"/><path d="m934.9 1028.1c.2 0 .4-.1.6-.1-.5-.2-.7-.5.2-.8l-3.7.7z"/><path d="m1160.5 365.2c-134.3 319.8-378.1 674.7-381.2 679.2l-1.3 1.9c8 11.2 14.7 24.3 19.9 39.3 9.7 27.9 11.1 57.7 11.1 87.8.1 50.2-3.5 101 21.2 144.5 58 101.7 210 83 301.7 49.2 184.5-68 300.1-295.8 324.8-478.6 24.1-179.3-71-402.9-296.2-523.3zm-64.7 250.1c.1 1.3.4 2.3-.3 3.7l-1.8 3.4zm-60.9 465.6c-1.1-.7-2-1.2-2.7-2.6l-1.5-3.5zm-12.1-16.5 2.6 2.8.8.8.7 1.1-1.5-1.9c-.9-.9-1-.4-.8.5l.7 2.5-.7-2.5-1.8-3.3-4.6-4.7zm46.5 170.4c-11.1 27.1-28.8 52.6-56.6 63.5-27.7 11.3-59.5 2.7-81-15.4-22.1-18.2-38.2-42.3-49.2-69.2-18.2-49.5-23.1-101.7 1.8-147.9 3.8-7.1 9.5-12.8 14-19.1l9.4-7.4.9-.5-.5.2 2.2-1.7c2.3-.8 5.2-3.1 8.7-4.6l2.9-1.5c4.9-1.8 9.5-4.6 14.9-4.4l-1.1.3 2.4-.5 6.8-.6 3.7.4c1.6 0 2.4-.5 3.6-.7 15.4 2.2 31.1 7 44.4 17.6 0 0 .4.4 1.1 1.1 22.6 16.7 42.1 44 53.9 77.6-.7-2.7-1.3-5.5-1.7-8.4.5 3.1-.2 2.9-1.4-.3l.2-2.9c2.5 5.4 5.1 10.9 5.3 16.8 0 0 1.3 2.2 2 3.4.3 1.9-.4 2-.9 2.5l1.4 3.7v.1l-.9-2.1c.2.7.5 1.4.6 2.1.4 1.4.6 2.9 1 4.3.9-2.4 7.4-16.7 16.1 9.1 5.2 20.6 6.5 63.3-4 84.5zm21-593.1.6-6.5.5-3.8.1-1.1.4-1.3-.5 2.4v.1c-.1 1.3.4 1 .9.3l1.4-2.1-1.4 2.1-1.4 3.5zm26.4-65.6c-1.7 2.3-3.4 4.5-5.4 6.8 2-2.4 2.4-1.7.7 1.3l-2.4 1.7c2.5-5.4 5.1-10.9 9.4-14.8 0 0 .9-2.4 1.3-3.7 1.2-1.4 1.8-.9 2.5-.9l1.9-3.4.1-.1-1 1.9c.4-.6.8-1.2 1.2-1.8.9-1.2 1.8-2.3 2.7-3.5-2.4.8-17.6 5-3.3-18.2 12.4-17.2 44.2-45.5 67.3-51.1 27.8-8.9 58.8-11.7 85 2.6 26.4 13.9 40.3 43.9 40.2 72 .2 28.6-7.9 56.4-21.5 82.1-26.2 45.8-63.1 83-114.6 93.6-7.8 1.6-15.9 1-23.6 1.5l-11.7-2.4-1-.4.5.3-2.7-.6c-2.1-1.3-5.7-2-9.1-3.7l-3-1.3c-4.5-2.6-9.6-4.4-13-8.6l1 .6-1.9-1.5-4.9-4.8-2-3.1c-1-1.2-2-1.5-2.9-2.3-8.2-13.2-14.5-28.4-15-45.3 0 0 .1-.6.2-1.6-1.7-28.2 6.7-60.7 25-91.3zm112.8 271.7c-1.3.1-2.3.3-3.7-.4l-3.3-1.8zm-16.4-3.8 2.1 1.5-2.1-1.5-3.4-1.5-6.5-.7 6.5.7 3.7.6 1.1.1 1.3.4-2.4-.5h-.1c-1.1-.1-.9.3-.2.9zm134.9 187.4c-14.5 26.1-44.7 39.3-72.9 38.6-28.6-.4-56.2-9.1-81.6-23.2-45.2-27.2-81.6-64.9-91.1-116.6-1.5-7.9-.6-15.9-1-23.6l2.7-11.7.4-1-.3.5.7-2.7c1.3-2.1 2.1-5.7 3.9-9l1.4-3c2.7-4.5 4.6-9.5 8.9-12.8l-.7.9 1.6-1.8 4.9-4.7 3.1-2c1.3-.9 1.5-2 2.4-2.8 13.4-7.9 28.7-13.9 45.6-14.1 0 0 .6.1 1.5.2 28.1-1.1 60.4 8 90.6 26.9-2.3-1.7-4.5-3.5-6.6-5.6 2.3 2.1 1.6 2.4-1.3.7l-1.7-2.4c5.3 2.6 10.7 5.3 14.6 9.8 0 0 2.4.9 3.7 1.4 1.4 1.3.9 1.8.9 2.6h.1l3.3 1.9.1.1-2-1c.6.4 1.2.8 1.8 1.2 1.2.9 2.3 1.8 3.5 2.8-.7-2.4-4.7-17.7 18.3-3 16.9 12.8 44.5 45.2 49.6 68.4 8.3 28.1 10.5 59.1-4.4 85z"/><path d="m883.3 1069.7 7.1-10.2c-3.3 2.1-6.2 5.3-7.1 10.2z"/><path d="m758.6 577s1.8.7 2.7 1c-.9-.4-2.7-1-2.7-1z"/><path d="m1055 1133.1c0-.1 0-.1-.1-.2 0 .1.1.1.1.2z"/><path d="m549.8 605.6c-.6 3.9-.7 8.6-1.1 12.4 1.9-3.4 2.8-7.6 1.1-12.4z"/><path d="m1104.1 933.8c0-4-.6-8.6-.8-12.4-1.3 3.7-1.5 8 .8 12.4z"/><path d="m526.1 668.1 2.3-2-2.6 1.3c-.1.1-.3.2-.4.4.6-.1.9 0 .2.8z"/><path d="m624.3 289.8c-608.3 83.2-697.9 749.1-425.8 835.5s252.9-60.8 435.4-118.4c31.6-10 60.6-10.9 85.8-3.3 88.3-278.7 232.8-520.6 344-680.6-118.8-41.3-264.8-57.1-439.4-33.2zm-302.1 699.8c.9-1 1.4-1.9 2.9-2.4l3.6-1.1zm17.6-10.4-3 2.3-.9.7-1.1.6 2-1.3c1-.8.5-1-.4-.9l-2.5.5c.5 0 1.7-.4 2.5-.5l3.4-1.4 5.1-4.1zm46-81.8-.2-1.1.2 2.4v6.8l-.8 3.6.3 3.7c-3.7 15.1-10.1 30.2-21.9 42.4 0 0-.5.4-1.2.9-18.8 20.8-47.9 37.6-82.6 45.9 2.8-.4 5.6-.8 8.6-.9-3.1.2-2.9-.5.4-1.4l2.9.5c-5.6 1.9-11.3 3.9-17.2 3.6 0 0-2.4 2.4-3.6 2.9-1.9.1-1.9.1-2.4.1 0 0 0 0-.1 0l-3.8-.2-.1-.7 2.1-1c-.7.1-1.4.1-2.2.3-1.5.2-2.9.3-4.4.5 2.2 1.2 15.9 9-10.7 15.1-20.9 3.1-63.5.2-83.6-12.4-25.8-13.7-49.4-33.8-57.6-62.6-8.5-28.6 3.2-59.5 23.3-79.1 20.3-20.1 45.8-33.8 73.7-42.1 51.1-13.2 103.5-12.9 147 16.4 6.6 4.4 11.8 10.7 17.6 15.8l6.5 10.1.4 1-.1-.6 1.5 2.4c.6 2.4 2.6 5.5 3.7 9.1l1.2 3.1c1.4 5.3 3.8 10.1 3.1 15.5zm26.9-226.2c1.3.1 2.3 0 3.6.9l3 2.3zm18.7 8.3-3.7-1.2-1.1-.3-1.2-.6 2.3.9c1.3.3 1.1-.2.5-.8l-1.8-1.8 1.8 1.8 3.2 2 6.3 1.7zm116.9-46.5-4.4 11.1-.6.9.4-.4-1.1 2.6c-1.6 1.9-3 5.3-5.3 8.3l-1.8 2.7c-3.4 4-6 8.7-10.8 11.3l.8-.8-1.8 1.6-5.6 3.9-3.4 1.5c-1.4.7-1.8 1.7-2.8 2.4-14.4 5.8-30.5 9.3-47.3 6.8 0 0-.6-.2-1.5-.4-27.9-3.3-58.4-17.2-85.3-40.6 2 2 3.9 4.1 5.7 6.5-1.9-2.4-1.2-2.6 1.4-.5l1.3 2.7c-4.8-3.4-9.8-6.9-12.9-11.9 0 0-2.2-1.3-3.4-2-1.2-1.5-.6-1.9-.5-2.7l-3.1-2.5v-.1l1.8 1.3c-.5-.5-1.1-1-1.6-1.5-1-1.1-2-2.2-3-3.2.4 2.5 1.8 18.2-18.6.1-14.7-15.2-37-51.6-38.4-75.2-3.8-29-1.1-59.9 17.5-83.2 18.4-23.6 50.3-31.9 78-26.9 28.2 4.8 54.1 17.7 77 35.6 40.4 33.9 70.6 76.8 72 129.3.2 7.7-1.9 15.6-2.7 23.3zm140.9-181c.1 1.3.4 2.3-.3 3.8l-1.8 3.3zm-5.5 26.4.6-6.5.5-3.8.1-1.1.4-1.3-.5 2.4v.1c-.1 1.3.4 1 .9.3l1.4-2.1-1.4 2.1-1.4 3.5zm90.7 98.8c-7.8 1.6-15.9 1-23.6 1.5l-11.7-2.4-1-.4.5.3-2.8-.6c-2.1-1.3-5.7-2-9.1-3.7l-3-1.3c-4.5-2.6-9.6-4.4-13-8.6l.9.6-1.9-1.5-4.9-4.8-2-3.1c-1-1.2-2-1.5-2.9-2.3-8.2-13.2-14.5-28.4-15-45.3 0 0 .1-.6.2-1.5-1.7-28 6.7-60.6 25-91.2-1.7 2.3-3.4 4.6-5.4 6.8 2-2.4 2.4-1.7.7 1.3l-2.4 1.7c2.5-5.4 5.1-10.9 9.4-14.8 0 0 .9-2.4 1.3-3.7 1.3-1.4 1.8-.9 2.5-.9l1.9-3.5.1-.1-1 2.1c.4-.6.8-1.3 1.3-1.9.9-1.2 1.8-2.3 2.7-3.5-2.4.8-17.6 5-3.4-18.2 12.4-17.2 44.2-45.5 67.3-51.1 27.8-8.9 58.8-11.7 85 2.6 26.4 14 40.3 43.9 40.2 72 .2 28.6-7.9 56.4-21.4 82.1-26.2 45.6-63.1 82.8-114.5 93.4z"/><path d="m1117.9 868.4-.1.1-1.9 2.3 2.4-1.7c.1-.2.3-.3.4-.5-.5.1-.9.1-.3-.8z"/><path d="m385.5 895.5v-.2l-.3-2.8-.5 2.8c0 .2 0 .4.1.6.3-.5.5-.7.7.3z"/></g><path d="m997 1050v.3c0-6.4-18-11.3-27.9-13.4l-2.9-1-5.4-1.1-9.5-2.8c-4.8-.7-10.1 3.4-16.9 4.4-1 .4-1.3-1.7-3.2-.4-4.7 2.9-8.3 5.3-12.6 7.4-1.4 1.8-5.6 2-7.1 3.9-4.6 3.3-10.1 16.1-5.4 9.8 8-8.2 13.4-13.9 23.1-17.6-8.5 3.8-15.6 10.4-23.2 18.5-4.4 5.7-11.3 12.8-14.1 21.9-4.2 12-5.6 25.6-6.5 40.6-4.5 57.4 19.9 111 59 145.1 7.8 7 16.3 8.9 23.4 13.1 34 12.8 60.9-17.4 76.7-41.2 13.6-16.8 12.8-56.6 8.2-34.7 7.6-31.8-1-43.8 4.3-61.2 0-.1.1-.2.1-.3-.3-1.4-.6-2.9-1-4.3-.2-.7-.4-1.4-.6-2.1l-.7-1.5.1-.2c0-.1 0-.1-.1-.2-1.3-3.6-2.5-7.2-3.4-10.9-11.7-33.7-31.3-60.9-53.9-77.6 1.8 1.9 3.5 5.8 4.6 7.7zm18.2 17c2.1 1.4.1 2.7 1.2 3.4 5 5.8 10.8 9.2 13.2 13.7 2 3.3 3.6 6.3 4.6 9.6-1-2.4-1.9-4.8-3.7-6.9-6.6-7.2-11.6-15-19.3-20.6-7.9-8.5-14.7-13-25.2-19.7-6.8-4.8 6.2.9 11.3 3.8 2.2 1.1 3.9 4.9 5.7 6.5 3.6 3.7 7.7 6.5 12.2 10.2z" fill="#eb4d97"/><path d="m935.7 1028.1c.8.2 2 .4 2.5.6z" fill="#eb4d97"/><path d="m1000.3 1047.4c-1.2-.5-3.5-1.6-3.5-1.6-3.6-4.4-8.5-8.1-14.4-9.4l1.8 2.1c2.1.8 3 .9 2.6.3-.4-.4-.9-.7-1.3-1.1.8.5 1.1.9 1.3 1.1 4.7 4 9.1 8 14.1 11.2.2-.7.7-1.2-.6-2.6z" fill="#eb4d97"/><path d="m935.7 1028.1c-.2 0-.2-.1-.3-.2-.2 0-.4.1-.6.1z" fill="#eb4d97"/><path d="m1034.9 1080.9-4.1-6.1 1.5 3.5c.6 1.5 1.5 1.9 2.6 2.6z" fill="#fffffe"/><path d="m1026.2 1068.1-.8-.8 1.6 1.8z" fill="#fffffe"/><path d="m1018.2 1059.8 4.6 4.6" fill="none"/><path d="m1025.4 1067.2-2.6-2.8 1.8 3.3c-.2-.8-.2-1.4.8-.5z" fill="#fffffe"/><path d="m1025.3 1070.2-.7-2.5" fill="none"/><path d="m997.2 1050.2c-5.1-2.9-18.1-8.6-11.3-3.8 10.4 6.7 17.3 11.2 25.2 19.7 7.7 5.5 12.7 13.3 19.3 20.6 1.8 2.1 2.8 4.5 3.7 6.9-1-3.3-2.6-6.3-4.6-9.6-2.4-4.5-8.2-7.9-13.2-13.7-1-.7.9-2-1.2-3.4-4.5-3.7-8.6-6.4-12.2-10.2-1.8-1.5-3.5-5.3-5.7-6.5z" fill="#fffffe"/><path d="m1055 1133.1c.5-.6 1.2-.7.9-2.5-.7-1.1-2-3.4-2-3.4-.2-5.9-2.8-11.4-5.3-16.8l-.2 2.9c1.2 3.2 1.9 3.3 1.4.3.4 3 1 5.7 1.7 8.4.9 3.7 2 7.3 3.4 10.9-0 .1.1.1.1.2z" fill="#fffffe"/><path d="m1054.8 1133.3.7 1.5.9 2.1v-.1l-1.4-3.7z" fill="#fffffe"/><path d="m1057.1 1141.3c0 .1-.1.2-.1.3-5.3 17.4 3.4 29.4-4.3 61.2 4.6-21.9 5.4 17.9-8.2 34.7-15.8 23.8-42.7 54-76.7 41.2-7.1-4.2-15.6-6.1-23.4-13.1-39.2-34.1-63.5-87.7-59-145.1.9-15.1 2.4-28.7 6.5-40.6 2.8-9.2 9.7-16.2 14.1-21.9 7.6-8.2 14.7-14.7 23.2-18.5-9.7 3.7-15.1 9.4-23.1 17.6-4.7 6.4.8-6.5 5.4-9.8 1.5-1.9 5.7-2.1 7.1-3.9 4.3-2.1 8-4.5 12.6-7.4 1.9-1.3 2.3.7 3.3.4 6.8-1 12.2-5.1 17-4.4l9.7 2.8 5.9 1.1 1.9 1c9.9 2 27.9 7 27.9 13.4v-.3c0-3.2-7.4-7.2-12.1-11.2.4.5.5.5-1.6-.3l-1.3-2.1c5.9 1.3 11 5 14.6 9.4 0 0 2.5 1.1 3.6 1.6 1.3 1.4.8 1.8.8 2.6l3.3 2.1c-1-1.8-4.7-5.8-6.5-7.7-.6-.7-1.1-1.1-1.1-1.1-13.3-10.5-29-15.4-44.4-17.6-1.2.1-2 .7-3.6.7l-3.7-.4-6.8.6-2.4.5c-1 .3-.8.6-.2.8.1.1.1.1.3.2l2.5.6c-.5-.1-1.7-.3-2.5-.6l-.9-.1-2.9-.2 3.7-.7 1.1-.3c-5.4-.2-10 2.6-14.9 4.4l-2.9 1.5c-3.5 1.5-6.4 3.8-8.7 4.6l-2.2 1.7.5-.2-.9.5-9.4 7.4c-4.5 6.3-10.2 12-14 19.1-24.9 46.3-20 98.4-1.8 147.9 11 26.9 27.1 51 49.2 69.2 21.5 18.1 53.4 26.7 81 15.4 27.8-11 45.5-36.5 56.6-63.5 10.5-21.2 9.2-63.9 4-84.4-8.7-25.8-15.2-11.5-16.2-9.1zm-166.7-81.8-7.1 10.2c.9-4.9 3.8-8.1 7.1-10.2z" fill="#fffffe"/><path d="m985.6 1037.7c.5.4.9.7 1.3 1.1-.2-.3-.6-.6-1.3-1.1z" fill="#fffffe"/><path d="m1119 868.6c-.2.1-.2 0-.3.1-.1.2-.3.3-.4.5z" fill="#b98d2f"/><path d="m1183.6 844.8.2.2c-11.3.8-22.7 3.7-31.7 8.3l-3.7 1.7-5.3 2.8-9.3 3.9c-4.2 2.5-5.9 9.1-10.5 14.1-.5.9-2.1-.5-2.8 1.8-1.8 5.1-3.2 9.3-5.2 13.6.1 2.3-3.1 5.1-3.1 7.5-1.5 5.4 2.2 18.9 1.9 11 1.1-11.4 1.8-19.2 7-28.2-4.2 8.3-5.7 17.8-6.5 28.9.2 7.2-.8 17 2.7 25.9 4.2 11.9 11.6 23.5 20.3 35.8 32.3 47.6 84.9 74.2 136.8 76.3 10.4.6 18.3-3.2 26.4-4.4 34.6-11.2 36.6-51.6 34.1-80.1.1-21.7-25.4-52.2-15.3-32.2-13.9-29.6-28.2-33.5-34.9-50.4 0 0-.1-.2-.1-.3-1.2-.9-2.3-1.9-3.5-2.8-.6-.4-.1-.8-.7-1.2l-.4-.8v-.2c0-2-7.6-4.1-10.7-6.5-30.2-19-63.1-28-91.2-26.9 2.6.3 7.7 1.1 9.7 1.9zm21.7 4.4c2.5-.2 1.8 2 3 1.9 7.5 1.4 14.2.5 18.9 2.4 3.6 1.3 6.8 2.7 9.6 4.6-2.3-1.2-4.5-2.5-7.2-3-9.7-1.5-18.5-4.5-27.9-4-11.4-1.7-19.6-.9-32 .4-8.3.5 5.4-3.2 11.2-4.2 2.4-.5 6.1 1.4 8.5 1.5 5.2.8 10.1.4 15.9.4z" fill="#b98d2f"/><path d="m1181.5 843.3c-1.3.3-3.7 1-3.7 1-5.6-1.2-11.7-1-17.1 1.6l2.7.5c2.2-.7 2.9-1.2 2.2-1.4-.6 0-1.1 0-1.7-.1.9-.1 1.4 0 1.7.1 6.2.2 12.1.6 18.1-.1-.4-.7-.3-1.4-2.2-1.6z" fill="#b98d2f"/><path d="m1277.8 876c-.1 0-.1 0 0 0z" fill="#b98d2f"/><path d="m1229.5 847.8-7.1-2.2 3.3 1.8c1.5.8 2.5.5 3.8.4z" fill="#fffffe"/><path d="m1214.6 843.2-1.1-.1 2.4.5z" fill="#fffffe"/><path d="m1203.1 841.7 6.6.8" fill="none"/><path d="m1209.7 842.5 3.4 1.5c-.7-.5-.9-1 .3-.9z" fill="#fffffe"/><path d="m1213.5 843.1c-.1 0 0 0 0 0z" fill="#fffffe"/><path d="m1215.2 845.4-2.1-1.4" fill="none"/><path d="m1169.7 851.6c12.4-1.3 20.5-2 32-.4 9.5-.5 18.2 2.5 27.9 4 2.7.5 5 1.8 7.2 3-2.9-1.9-6-3.3-9.6-4.6-4.7-2-11.3-1-18.9-2.4-1.2.1-.5-2.1-3-1.9-5.8-.1-10.7.3-15.9-.4-2.4-.1-6.1-2-8.5-1.5-5.9 1-19.6 4.6-11.2 4.2z" fill="#fffffe"/><path d="m1278 876c0-.7.4-1.3-1-2.6-1.2-.5-3.7-1.4-3.7-1.4-3.8-4.4-9.3-7.1-14.6-9.8l1.7 2.4c2.9 1.7 3.6 1.4 1.3-.7 2.2 2.1 4.5 3.8 6.8 5.6 2.9 2.4 5.5 4.5 9.5 6.5z" fill="#fffffe"/><path d="m1278 876.2 1.4.8 1.9 1-.1-.1-3.3-1.9h.1z" fill="#fffffe"/><path d="m1302.8 878c-23-14.7-19.1.6-18.3 3 0 .1.1.2.1.3 6.8 16.9 21 20.9 34.9 50.4-10.1-20 15.4 10.6 15.3 32.2 2.6 28.5.5 68.8-34.1 80.1-8.2 1.2-16 5-26.4 4.4-51.9-2.1-104.4-28.7-136.8-76.3-8.7-12.3-16.1-23.8-20.3-35.8-3.5-8.9-2.5-18.7-2.7-25.9.9-11.1 2.3-20.7 6.5-28.9-5.3 9-5.9 16.8-7 28.2.3 7.9-3.4-5.6-1.9-11 0-2.4 3.1-5.2 3.1-7.5 2.1-4.3 3.4-8.5 5.2-13.6.7-2.3 2.2-.8 2.8-1.8 4.6-5 6.3-11.6 10.5-14.1l9.3-3.9 5.3-2.8 3.7-1.7c9-4.6 20.4-7.4 31.7-8.3l-.2-.2c-5.9.7-11.8.3-18.1.1.7.2 0 .7-2.2 1.4l-2.7-.5c5.4-2.7 11.5-2.8 17.1-1.6 0 0 2.5-.6 3.7-1 1.9.2 1.8 1 2.2 1.6l3.9-.4c-2-.8-7.3-1.5-9.9-1.9-.9-.1-1.5-.2-1.5-.2-17 .1-32.3 6.1-45.6 14.1-.9.9-1.1 1.9-2.4 2.8l-3.1 2-4.9 4.7-1.6 1.8c-.6.9-.2.9.3.8.1 0 .2 0 .3-.1l-.7.5-2.4 1.7 1.9-2.3.1-.1.5-.6.7-.9c-4.3 3.3-6.2 8.3-8.9 12.8l-1.4 3c-1.8 3.3-2.6 6.9-3.9 9l-.7 2.7.3-.5-.4 1-2.7 11.7c.4 7.7-.5 15.8 1 23.6 9.5 51.6 45.9 89.3 91.1 116.6 25.4 14.1 53 22.8 81.6 23.2 28.1.7 58.4-12.5 72.9-38.6 14.8-25.9 12.7-56.9 4.4-85-5-22.9-32.7-55.4-49.6-68.2zm-199.5 43.5c.2 3.7.8 8.4.8 12.4-2.3-4.5-2.1-8.8-.8-12.4z" fill="#fffffe"/><path d="m1163.9 844.9c.6 0 1.1 0 1.7.1-.3-.1-.8-.2-1.7-.1z" fill="#fffffe"/><path d="m1119.5 725.9-.5-.7c.1.1 0 .2.1.3.1.2.2.3.4.4z" fill="#d77d31"/><path d="m1092.3 663.3c.4 1.3 1 3.7 1 3.7-1.1 5.6-.8 11.7 2 17.1l.4-2.7c-.7-2.2-1.3-2.9-1.4-2.2v1.7c-.1-.9-.1-1.4 0-1.7.1-6.2.3-12.1-.5-18-.6.3-1.3.2-1.5 2.1z" fill="#d77d31"/><path d="m1093.8 661.1.2-.2c1.1 11.2 4.2 22.6 9 31.5l1.7 3.7 2.9 5.3 4.1 9.2c2.5 4.1 9.2 5.7 14.3 10.2.9.5-.5 2.1 1.8 2.8 5.2 1.7 9.4 3 13.7 4.9 2.3-.1 5.2 3 7.6 2.9 5.4 1.4 18.9-2.6 11-2.1-11.4-.8-19.2-1.4-28.3-6.4 8.4 4 17.9 5.3 29.1 5.9 7.2-.3 17 .5 25.9-3.2 11.8-4.5 23.2-12.1 35.3-21.1 46.9-33.4 72.4-86.5 73.4-138.4.4-10.4-3.6-18.2-5-26.4-12-34.3-52.4-35.5-80.8-32.3-21.7.4-51.7 26.5-31.9 16-29.3 14.6-32.9 28.9-49.7 36 0 0-.2.1-.3.1-.9 1.2-1.8 2.3-2.7 3.5-.4.6-.8 1.2-1.2 1.8l-.8 1.6h-.3c-1.9 3.4-4 6.6-6.2 9.7-18.3 30.6-26.7 63.1-25 91.1.3-2.7.9-8 1.7-9.9zm4-5.8c.6-5.2 0-10.1 0-15.9-.3-2.5 2-1.8 1.8-3.1 1.3-7.6.2-14.2 2-18.9 1.2-3.6 2.6-6.8 4.4-9.7-1.2 2.3-2.4 4.6-2.9 7.3-1.3 9.7-4.1 18.6-3.4 28-1.4 11.5-.5 19.6 1.1 31.9.7 8.3-3.3-5.3-4.4-11.1-.5-2.3 1.3-6.1 1.4-8.5z" fill="#d77d31"/><path d="m1095.8 615.3-2 7.1 1.8-3.4c.6-1.5.3-2.4.2-3.7z" fill="#fffffe"/><path d="m1091.5 630.2-.1 1.1.5-2.4z" fill="#fffffe"/><path d="m1090.3 641.7.6-6.5" fill="none"/><path d="m1091.4 631.4-.5 3.8 1.4-3.5c-.5.7-1 1-.9-.3z" fill="#fffffe"/><path d="m1092.3 631.7 1.5-2.1" fill="none"/><path d="m1100.8 675c-1.6-12.3-2.5-20.5-1.1-31.9-.7-9.5 2.1-18.3 3.4-28 .4-2.7 1.7-5 2.9-7.3-1.8 2.9-3.2 6.1-4.4 9.7-1.9 4.7-.8 11.3-2 18.9.1 1.2-2.1.6-1.8 3.1 0 5.8.6 10.7 0 15.9 0 2.4-1.9 6.2-1.3 8.6 1 5.7 5 19.3 4.3 11z" fill="#fffffe"/><path d="m1122.9 566c-.7 0-1.3-.3-2.5 1.1-.5 1.2-1.3 3.8-1.3 3.8-4.3 3.9-6.9 9.5-9.4 14.9l2.4-1.7c1.6-3 1.3-3.6-.7-1.3 2-2.2 3.7-4.7 5.4-6.9 2.1-3.2 4.2-5.9 6.1-9.9z" fill="#fffffe"/><path d="m1123.2 566.4.8-1.6.9-1.9h-.1l-1.9 3.5z" fill="#fffffe"/><path d="m1106.6 714.1c.9.8 1.9 1.1 2.9 2.3l2 3.1 4.9 4.8 1.9 1.5-1-.6c3.3 4.3 8.4 6 13 8.6l3 1.3c3.4 1.8 7 2.5 9.1 3.7l2.7.6-.5-.3 1 .4 11.7 2.4c7.7-.5 15.8.1 23.6-1.5 51.4-10.7 88.3-47.9 114.6-93.6 13.6-25.7 21.7-53.5 21.5-82.1.1-28.1-13.8-58-40.2-72-26.3-14.3-57.2-11.5-85-2.6-23.1 5.6-54.9 33.9-67.3 51.1-14.2 23.3 1 19 3.3 18.2.1 0 .2-.1.3-.1 16.8-7.1 20.4-21.4 49.7-36-19.8 10.5 10.2-15.6 31.9-16 28.4-3.2 68.8-2 80.8 32.3 1.4 8.2 5.3 15.9 5 26.4-1 51.9-26.4 105-73.4 138.4-12.1 9-23.5 16.6-35.3 21.1-8.8 3.7-18.7 2.9-25.9 3.2-11.1-.6-20.7-1.9-29.1-5.9 9.1 5 16.9 5.6 28.3 6.4 7.9-.5-5.5 3.6-11 2.1-2.4.1-5.3-3-7.6-2.9-4.3-2-8.6-3.2-13.7-4.9-2.3-.6-.9-2.2-1.8-2.8-5.1-4.5-11.8-6.1-14.3-10.2l-4.1-9.2-2.9-5.3-1.7-3.7c-4.8-8.9-7.9-20.3-9-31.5l-.2.2c.8 5.9.6 11.8.5 18 .2-.6.7.1 1.4 2.2l-.4 2.7c-2.8-5.4-3.1-11.4-2-17.1 0 0-.7-2.5-1-3.7.2-1.9.9-1.8 1.5-2.2l-.4-3.9c-.7 2-1.4 7.3-1.7 9.9-.1.9-.2 1.5-.2 1.6.6 17.2 6.9 32.4 15.1 45.6zm65.6 25.7c3.7-.3 8.4-1 12.4-1.1-4.5 2.5-8.7 2.3-12.4 1.1zm-52.7-13.9 1.7 2.3-2.9-2.4c.9.5.9.2.8-.3 0-.1 0-.2-.1-.3z" fill="#fffffe"/><path d="m1094.3 680.9c0-.6 0-1.1 0-1.7-.1.3-.1.8 0 1.7z" fill="#fffffe"/><path d="m712.4 562c.1.1 0 .2.1.3s.3.2.4.3z" fill="#00a251"/><path d="m685.7 500.1c.4 1.3 1 3.7 1 3.7-1.1 5.6-.8 11.7 2 17.1l.4-2.7c-.7-2.2-1.3-2.9-1.5-2.2v1.7c-.1-.9-.1-1.4 0-1.7.1-6.2.3-12.1-.5-18-.4.3-1.2.2-1.4 2.1z" fill="#00a251"/><path d="m698 494.5.2-.2c1.1 11.2 4.2 22.7 9 31.5l1.7 3.7 2.9 5.3 4.1 9.2c2.5 4.1 9.2 5.7 14.3 10.2 1 .5-.4 2.1 1.8 2.7 5.2 1.7 9.4 3 13.8 4.9 2.3-.1 5.2 3 7.6 2.9 5.4 1.4 18.9-2.6 11-2.1-11.4-.8-19.3-1.4-28.3-6.4 8.4 4.1 17.9 5.3 29.1 5.9 7.2-.3 17 .5 25.9-3.2 11.8-4.5 23.2-12.1 35.3-21.1 46.9-33.4 72.4-86.5 73.3-138.4.4-10.4-3.6-18.2-4.9-26.4-12-34.3-52.4-35.5-80.8-32.3-21.7.4-51.7 26.5-31.9 16-29.3 14.6-32.9 28.9-49.7 36 0 0-.2.1-.3.1-.9 1.2-1.8 2.3-2.7 3.5-.5.6-.8 1.3-1.3 1.9l-.7 1.4h-.2c-.1.1-.1.2-.2.3-1.8 3.2-3.8 6.3-6 9.4-18.3 30.6-26.7 63.2-25 91.2.3-2.6.9-8 1.7-10zm4-5.8c.6-5.2.1-10.1 0-15.9-.2-2.5 2-1.8 1.9-3.1 1.3-7.6.2-14.2 2-18.9 1.2-3.6 2.6-6.8 4.4-9.7-1.2 2.3-2.4 4.6-2.9 7.3-1.3 9.7-4.1 18.6-3.4 28-1.4 11.5-.5 19.6 1.1 31.9.7 8.3-3.3-5.3-4.4-11.1-.6-2.4 1.2-6.1 1.3-8.5z" fill="#00a251"/><path d="m689.2 452-2 7.1 1.8-3.3c.6-1.5.3-2.5.2-3.8z" fill="#fffffe"/><path d="m684.9 466.9-.1 1.2.5-2.4z" fill="#fffffe"/><path d="m683.7 478.4.6-6.5" fill="none"/><path d="m684.8 468.1-.5 3.8 1.4-3.5c-.5.7-.9 1-.9-.3z" fill="#fffffe"/><path d="m685.7 468.4 1.5-2.1" fill="none"/><path d="m694.3 511.7c-1.6-12.3-2.5-20.5-1.1-31.9-.7-9.5 2.1-18.3 3.4-28 .5-2.7 1.7-5 2.9-7.3-1.8 2.9-3.2 6.1-4.4 9.7-1.9 4.7-.8 11.3-2 18.9.1 1.2-2.1.5-1.9 3.1 0 5.8.6 10.7 0 15.9 0 2.4-1.8 6.1-1.3 8.6 1.1 5.7 5 19.3 4.4 11z" fill="#fffffe"/><path d="m716.3 403.1c-.7 0-1.3-.5-2.5.9-.5 1.2-1.3 3.7-1.3 3.7-4.3 3.9-6.9 9.4-9.4 14.8l2.4-1.7c1.6-2.9 1.3-3.6-.7-1.3 2-2.2 3.8-4.5 5.4-6.8 2.2-3 4.2-6.1 6-9.4 0 0 .1-.1.1-.2z" fill="#fffffe"/><path d="m716.6 403 .7-1.3 1-2.1h-.1l-1.9 3.4h.1z" fill="#fffffe"/><path d="m870.2 329.5c-26.3-14.3-57.2-11.4-85-2.6-23.1 5.6-54.9 33.9-67.3 51.1-14.2 23.3 1 19 3.4 18.2.1 0 .2-.1.3-.1 16.8-7.1 20.4-21.4 49.7-36-19.8 10.5 10.2-15.6 31.9-16 28.4-3.2 68.8-2 80.8 32.3 1.3 8.2 5.3 15.9 4.9 26.4-1 51.9-26.4 105-73.3 138.4-12.1 9-23.5 16.6-35.3 21.1-8.8 3.7-18.7 2.9-25.9 3.2-11.1-.6-20.7-1.8-29.1-5.9 9.1 5.1 16.9 5.6 28.3 6.4 7.9-.5-5.5 3.5-11 2.1-2.4.1-5.3-3-7.6-2.9-4.4-2-8.6-3.2-13.8-4.9-2.3-.6-.9-2.2-1.8-2.7-5.1-4.5-11.7-6.1-14.3-10.2l-4.1-9.2-2.9-5.3-1.7-3.7c-4.8-8.8-7.9-20.3-9-31.5l-.2.2c.8 5.9.6 11.8.5 18 .2-.6.7.1 1.5 2.2l-.4 2.7c-2.8-5.4-3.1-11.4-2-17.1 0 0-.7-2.5-1-3.7.2-1.9.9-1.8 1.5-2.2l-.4-3.8c-.7 2-1.4 7.3-1.7 10-.1.9-.2 1.5-.2 1.5.5 17 6.8 32.1 15 45.3.9.8 1.9 1.1 2.9 2.3l2 3.1 4.9 4.8 1.9 1.5c.9.6.9.2.8-.3 0-.1 0-.2-.1-.3l.5.7 1.7 2.4-2.4-1.9-.6-.5-.9-.6c3.3 4.2 8.4 6 13 8.6l3 1.3c3.4 1.7 7 2.5 9.1 3.7l2.8.6-.5-.3 1 .4 11.7 2.4c7.7-.5 15.8.1 23.6-1.5 51.5-10.6 88.3-47.9 114.6-93.6 13.6-25.7 21.7-53.5 21.4-82.1.1-28.2-13.8-58.1-40.2-72zm-111.6 247.5s1.8.7 2.7 1c-.9-.4-2.7-1-2.7-1zm7-.5c3.7-.3 8.4-1 12.4-1.1-4.4 2.5-8.7 2.4-12.4 1.1z" fill="#fffffe"/><path d="m687.7 517.6c0-.6 0-1.1 0-1.7 0 .3-.1.8 0 1.7z" fill="#fffffe"/><path d="m459.4 683.1c1.3-.1 3.8-.4 3.8-.4 5.3 2.1 11.4 2.9 17.2 1l-2.6-.9c-2.3.3-3.1.8-2.4 1.1.6.1 1.1.2 1.7.3-.9-.1-1.4-.2-1.7-.3-6.1-1.2-11.9-2.5-17.9-2.7.3.7 0 1.4 1.9 1.9z" fill="#00a9de"/><path d="m525 667.8h.3c.1-.1.3-.2.4-.4z" fill="#00a9de"/><path d="m457.5 668.4-.1-.2c11.2.9 23-.1 32.6-3.3l3.9-1.1 5.7-2 9.8-2.4c4.5-1.8 7.2-8.1 12.6-12.3.7-.8 2 .8 3-1.3 2.6-4.8 4.6-8.7 7.3-12.7.3-2.3 3.8-4.6 4.2-6.9 2.3-5.1.8-19-.2-11.2-2.8 11.1-4.7 18.7-11.3 26.7 5.5-7.5 8.4-16.7 10.9-27.6 1-7.1 3.5-16.7 1.4-26-2.3-12.5-7.8-24.9-14.5-38.5-24.6-52.1-72.4-86.5-123.3-96.6-10.2-2.2-18.5.4-26.8.2-35.9 5.8-44.2 45.3-46.1 73.8-3.5 21.4 17 55.5 10.1 34.2 9.2 31.4 22.6 37.5 26.7 55.2v.3c1 1.1 1.9 2.2 3 3.2.5.5 1.1 1 1.6 1.5l1.3 1v.2c3 2.4 5.8 5.1 8.4 7.8 26.9 23.4 57.4 37.4 85.3 40.6-2.6-.7-7.7-2.3-9.5-3.4zm-20.7-7.7c-2.5-.2-1.5-2.3-2.7-2.4-7.2-2.6-13.9-2.7-18.2-5.3-1.8-1-3.1-2.2-4.7-3.2-1.4-.9-2.8-1.8-4.1-2.8 1.2 1.1 2.8 1.9 4.1 2.8.8.5 1.6 1 2.6 1.3 9.4 3 17.6 7.3 27 8.3 11 3.4 19.2 3.9 31.6 4.6 8.3.8-5.8 2.3-11.7 2.4-2.5.1-5.9-2.3-8.2-2.8-5.1-1.5-10-1.9-15.7-2.9z" fill="#00a9de"/><path d="m412.7 671.2 6.6 3.3-3-2.3c-1.3-1-2.3-.9-3.6-1z" fill="#fffffe"/><path d="m426.6 678.1 1.1.2-2.2-.8z" fill="#fffffe"/><path d="m437.7 681.3-6.3-1.8" fill="none"/><path d="m427.8 678.4 3.6 1.2-3.1-2c.5.6.7 1.1-.5.8z" fill="#fffffe"/><path d="m426.4 675.7 1.8 1.8" fill="none"/><path d="m472.3 676.8c-12.4-.6-20.6-1.2-31.6-4.6-9.4-1-17.6-5.3-27-8.3-.9-.3-1.7-.8-2.6-1.3 1.5 1.1 2.9 2.2 4.7 3.2 4.3 2.7 11 2.8 18.2 5.3 1.2.1.2 2.2 2.7 2.4 5.7 1 10.6 1.3 15.7 2.8 2.4.5 5.7 2.9 8.2 2.8 5.9 0 20-1.5 11.7-2.3z" fill="#fffffe"/><path d="m411.2 662.6c-1.4-.9-2.9-1.7-4.1-2.8 1.3 1 2.6 1.9 4.1 2.8z" fill="#fffffe"/><path d="m369.3 635.9c-.1.7-.7 1.2.5 2.7 1.1.7 3.4 2 3.4 2 3.1 5 8.1 8.5 12.9 11.9l-1.3-2.7c-2.6-2.1-3.3-1.9-1.4.5-1.8-2.4-3.7-4.5-5.7-6.5-2.6-2.9-5.4-5.5-8.4-7.9z" fill="#fffffe"/><path d="m369.4 635.6-1.4-.9-1.8-1.4.1.1 3 2.5z" fill="#fffffe"/><path d="m479 480.2c-22.9-17.9-48.9-30.8-77-35.6-27.7-5-59.6 3.3-78 26.9-18.7 23.3-21.3 54.3-17.5 83.2 1.4 23.7 23.7 60 38.4 75.2 20.4 18.1 18.9 2.5 18.6-.1 0-.1 0-.3 0-.3-4.1-17.8-17.5-23.8-26.7-55.2 6.9 21.3-13.6-12.8-10.1-34.2 1.9-28.6 10.2-68.1 46.1-73.8 8.3.1 16.6-2.4 26.8-.2 50.9 10.1 98.7 44.5 123.3 96.6 6.7 13.5 12.2 26 14.5 38.5 2.1 9.4-.4 18.9-1.4 26-2.6 10.8-5.5 20-10.9 27.6 6.6-8 8.5-15.7 11.3-26.7.9-7.9 2.5 6.1.2 11.2-.4 2.4-3.9 4.6-4.2 6.9-2.7 3.9-4.7 7.9-7.3 12.7-1 2.1-2.3.5-3 1.3-5.4 4.2-8.1 10.5-12.6 12.3l-9.8 2.4-5.7 2-3.9 1.1c-9.5 3.1-21.3 4.2-32.6 3.3l.1.2c6 .2 11.7 1.5 17.9 2.7-.6-.3.2-.7 2.4-1.1l2.6.9c-5.8 1.8-11.8 1-17.2-1 0 0-2.6.3-3.8.4-1.8-.5-1.6-1.2-1.9-1.9l-3.9-.3c1.8 1.1 6.9 2.6 9.5 3.4.9.3 1.5.4 1.5.4 16.8 2.5 32.8-1.1 47.3-6.8 1-.7 1.4-1.7 2.8-2.4l3.4-1.5 5.6-3.9 1.8-1.6-.8.8c4.8-2.5 7.4-7.3 10.8-11.3l1.8-2.7c2.3-3 3.7-6.4 5.3-8.3l1.1-2.6-.4.4.6-.9 4.4-11.1c.8-7.7 2.9-15.5 2.7-23.5-1.6-52.7-31.7-95.6-72.1-129.4zm46.3 187.6c-.1 0-.2 0-.3 0l.8-.4 2.6-1.3-2.3 2-.5.4c.6-.7.3-.8-.3-.7zm24.5-62.2c1.6 4.8.8 8.9-1.1 12.4.4-3.8.5-8.5 1.1-12.4z" fill="#fffffe"/><path d="m475.3 683.9c.3.1.8.3 1.7.3-.6-.1-1.1-.2-1.7-.3z" fill="#fffffe"/><path d="m384.6 896.2c-.3.8-.6 2-.8 2.4z" fill="#fd4f57"/><path d="m359 958.5c.7-1.1 1.9-3.4 1.9-3.4 4.8-3.1 8.9-7.6 10.8-13.4l-2.2 1.6c-1 2-1.2 2.9-.6 2.6.4-.4.8-.8 1.2-1.2-.6.7-1 1-1.2 1.2-4.5 4.3-8.9 8.2-12.5 13 .6.2 1.1.8 2.6-.4z" fill="#fd4f57"/><path d="m351.1 953.1h-.2c7.3-8.6 13.3-18.8 16.3-28.4l1.4-3.8 1.7-5.8 3.7-9.4c1.1-4.7-2.4-10.5-2.7-17.3-.3-1.1 1.8-1.2.7-3.2-2.4-4.9-4.4-8.8-6.1-13.3-1.7-1.6-1.5-5.8-3.2-7.5-2.8-4.9-15-11.7-9.2-6.3 7.4 8.7 12.5 14.7 15.2 24.7-3-8.8-8.8-16.5-16.1-24.9-5.3-4.9-11.6-12.5-20.4-16.2-11.5-5.3-24.9-8.1-39.8-10.5-56.7-10.2-112.4 8.8-150.2 44.3-7.7 7-10.5 15.3-15.4 22-16.1 32.6 11.2 62.3 33.4 80.4 15.4 15.2 55.1 18.4 33.7 11.6 30.9 10.7 43.6 3.3 60.5 10.3 0 0 .2.1.3.1 1.5-.2 2.9-.3 4.4-.5.7-.1 1.4-.3 2.2-.4l1.6-.5.2.2c3.7-1 7.5-1.7 11.3-2.3 34.7-8.3 63.8-25.1 82.6-45.9-2.1 1.6-6.4 4.9-8.3 5.8zm-18.3 12.4c-1.6 1.9-2.7-.1-3.5.8-6.3 4.4-10.3 9.8-14.9 11.8-3.5 1.7-6.7 2.9-10 3.7 2.5-.7 5-1.5 7.2-3 7.9-5.9 16.1-10.1 22.4-17.2 9.2-7 14.4-13.4 22.1-23.1 5.4-6.3-1.5 6.1-4.9 10.9-1.3 2.1-5.3 3.4-7 5.1-4.2 3.1-7.3 6.9-11.4 11z" fill="#fd4f57"/><path d="m384.6 896.2c.1-.2.1-.2.2-.3 0-.2 0-.4-.1-.6z" fill="#fd4f57"/><path d="m268.2 1004.5c.1 0 .1-.1 0 0 .1-.1.1-.1 0 0z" fill="#fd4f57"/><path d="m322.2 989.6 6.5-3.5-3.6 1.1c-1.6.6-2.1 1.4-2.9 2.4z" fill="#fffffe"/><path d="m335.9 982.3.8-.8-2 1.4z" fill="#fffffe"/><path d="m344.9 975.1-5.1 4.1" fill="none"/><path d="m336.8 981.5 3-2.3-3.4 1.4c.8 0 1.3.1.4.9z" fill="#fffffe"/><path d="m336.4 980.6c-.9.1-2.1.4-2.5.5z" fill="#fffffe"/><path d="m356.5 955.2c3.4-4.8 10.3-17.2 4.9-10.9-7.7 9.7-12.9 16.1-22.1 23.1-6.3 7.1-14.5 11.3-22.4 17.2-2.3 1.6-4.8 2.3-7.2 3 3.4-.7 6.6-2 10-3.7 4.7-2 8.6-7.4 14.9-11.8.8-1 1.9 1.1 3.5-.8 4.1-4.1 7.3-7.9 11.4-11.1 1.7-1.6 5.6-2.9 7-5z" fill="#fffffe"/><path d="m268.3 1004.4c.5.5.5 1.3 2.4 1.1 1.2-.5 3.6-1.6 3.6-1.6 5.9.4 11.6-1.7 17.2-3.6l-2.9-.5c-3.3.9-3.5 1.6-.4 1.4-3 .1-5.8.4-8.6.9-3.8.6-7.6 1.3-11.3 2.3z" fill="#fffffe"/><path d="m268.1 1004.3-1.6.5-2.1.7h.1l3.7-1 .1-.1z" fill="#fffffe"/><path d="m381.7 879c-1.1-3.7-3.1-6.8-3.7-9.1l-1.5-2.4.1.6-.4-1-6.5-10.1c-5.8-5.1-11-11.4-17.6-15.8-43.6-29.3-96-29.7-147-16.4-27.9 8.3-53.4 22-73.7 42.1-20.2 19.6-31.9 50.5-23.3 79.1 8.2 28.7 31.8 48.9 57.6 62.6 20.1 12.6 62.6 15.5 83.6 12.4 26.6-6.1 12.9-14 10.7-15.2-.1-.1-.2-.1-.3-.1-16.8-7-29.6.4-60.5-10.3 21.3 6.8-18.3 3.6-33.7-11.6-22.2-18.1-49.5-47.8-33.4-80.4 4.9-6.7 7.7-14.9 15.4-22 37.8-35.6 93.5-54.5 150.2-44.3 14.9 2.4 28.3 5.2 39.8 10.5 8.8 3.7 15.2 11.3 20.4 16.2 7.3 8.4 13.1 16.1 16.1 24.9-2.7-10-7.8-16-15.2-24.7-5.9-5.3 6.4 1.5 9.2 6.3 1.7 1.7 1.5 5.9 3.2 7.5 1.6 4.5 3.7 8.4 6.1 13.3 1.1 2.1-1 2.2-.7 3.2.3 6.8 3.9 12.7 2.7 17.3l-3.7 9.4-1.7 5.8-1.4 3.8c-3 9.6-9 19.8-16.3 28.4h.2c3.6-4.7 8-8.6 12.5-13-.6.3-.5-.6.6-2.6l2.2-1.6c-1.9 5.8-6 10.2-10.8 13.4 0 0-1.3 2.2-1.9 3.4-1.5 1.2-1.9.6-2.6.4l-2.4 3c1.9-.8 6.2-4.2 8.3-5.8.7-.6 1.2-.9 1.2-.9 11.8-12.2 18.2-27.3 21.9-42.4l-.3-3.7.8-3.6v-6.8l-.2-2.4c-.2-1-.5-.8-.7-.3-.1.1-.1.1-.2.3l-.8 2.4c.2-.4.5-1.6.8-2.4l.1-.9.5-2.8 3 2.8 2.8.2s0 0 0-.1l-2.7.8-1.2 1.1c.7-5.4-2.3-10.2-3.6-15.3zm-23.9-31-9.4-8.1c4.8 1.4 7.7 4.6 9.4 8.1z" fill="#fffffe"/><path d="m370.1 944.8c-.4.4-.8.8-1.2 1.2.3-.1.6-.5 1.2-1.2z" fill="#fffffe"/><path d="m574.4 1164.8c9.6 131.3-95.9 134.5-95.9 134.5s265.7 48.5 292.1-249l-53.2-21s-152.6 4.2-143 135.5zm15.9-1.7s-7.5-101.3 104.4-115.5c0 0-76.2 30.5-104.4 115.5z" fill="#d77d31"/><path d="m1210.4 160.5c-81.4 98.1-342.6 434.6-474.3 854.8l31.5 12c40.7-59.9 363.6-542.2 442.8-866.8zm-13.5 30-434.6 815.3c109.1-264.4 434.6-815.3 434.6-815.3z" fill="#7c5f47"/><path d="m590.3 1163.1c28.2-85.1 104.4-115.5 104.4-115.5-111.9 14.3-104.4 115.5-104.4 115.5z" fill="#fffffe"/></svg>